<?xml version="1.0" standalone="no"?><!DOCTYPE svg PUBLIC "-//W3C//DTD SVG 1.1//EN" "http://www.w3.org/Graphics/SVG/1.1/DTD/svg11.dtd"><svg class="icon" width="32px" height="32.00px" viewBox="0 0 1024 1024" version="1.1" xmlns="http://www.w3.org/2000/svg"><path fill="#1296db" d="M662.945185 766.198519a28.444444 28.444444 0 0 1-13.748148-3.508149l-136.628148-75.851851-136.628148 75.851851a28.444444 28.444444 0 0 1-41.813334-29.487407L360.296296 571.259259 248.888889 456.817778a28.444444 28.444444 0 0 1 16.023704-47.976297l153.125926-23.419259 68.74074-146.488889a28.444444 28.444444 0 0 1 51.484445 0L606.814815 385.422222l153.125926 23.419259a28.444444 28.444444 0 0 1 16.023703 47.976297L664.651852 571.259259l26.358518 161.943704a28.444444 28.444444 0 0 1-28.444444 32.995556zM512.568889 625.777778a28.444444 28.444444 0 0 1 13.748148 3.602963L625.777778 684.468148l-18.962963-118.234074a28.444444 28.444444 0 0 1 7.68-24.462222l83.057778-85.333333-113.777778-17.351112a28.444444 28.444444 0 0 1-21.428148-16.023703l-49.777778-105.054815-49.493333 105.339259a28.444444 28.444444 0 0 1-21.428149 16.023704l-113.777777 17.351111 83.057777 85.333333a28.444444 28.444444 0 0 1 7.68 24.462223l-18.962963 118.234074 99.081482-54.802963a28.444444 28.444444 0 0 1 13.842963-4.171852zM965.688889 565.285926a27.022222 27.022222 0 0 0-21.522963-18.10963l-97.848889-14.98074-31.288889-66.370371L777.481481 513.611852l25.694815 54.613333a27.022222 27.022222 0 0 0 20.385185 15.265185l60.112593 9.481482-44.373333 45.511111a27.022222 27.022222 0 0 0-7.300741 23.22963l10.145185 62.482963-51.484444-28.444445a27.117037 27.117037 0 0 0-26.168889 0l-28.444445 15.644445 9.481482 56.888888L777.481481 749.89037l87.134815 48.165926a27.022222 27.022222 0 0 0 39.727408-28.444444l-16.971852-104.296296 71.585185-73.386667a27.022222 27.022222 0 0 0 6.731852-26.642963zM58.311111 565.285926a27.022222 27.022222 0 0 1 21.522963-18.10963l97.848889-14.98074 31.288889-66.370371L246.518519 513.611852l-25.694815 54.613333a27.022222 27.022222 0 0 1-20.385185 15.265185l-60.112593 9.481482 44.373333 45.511111a27.022222 27.022222 0 0 1 7.300741 23.22963l-10.145185 62.482963 51.484444-28.444445a27.117037 27.117037 0 0 1 26.168889 0l28.444445 15.644445-9.481482 56.888888L246.518519 749.89037l-87.134815 48.165926a27.022222 27.022222 0 0 1-39.727408-28.444444l16.971852-104.296296-72.059259-72.533334a27.022222 27.022222 0 0 1-6.257778-27.496296z"  /></svg>