<?xml version="1.0" standalone="no"?><!DOCTYPE svg PUBLIC "-//W3C//DTD SVG 1.1//EN" "http://www.w3.org/Graphics/SVG/1.1/DTD/svg11.dtd"><svg t="1597304561659" class="icon" viewBox="0 0 1024 1024" version="1.1" xmlns="http://www.w3.org/2000/svg" p-id="2566" width="32" height="32" xmlns:xlink="http://www.w3.org/1999/xlink"><defs><style type="text/css"></style></defs><path d="M280.7 831.6h-72c-4.4 0-8-3.6-8-8s3.6-8 8-8h72c4.4 0 8 3.6 8 8s-3.6 8-8 8zM713.7 831.6h-404c-4.4 0-8-3.6-8-8s3.6-8 8-8h404c4.4 0 8 3.6 8 8s-3.6 8-8 8zM887.4 831.6h-74c-4.4 0-8-3.6-8-8s3.6-8 8-8h74c4.4 0 8 3.6 8 8s-3.6 8-8 8zM784.1 831.6h-24c-4.4 0-8-3.6-8-8s3.6-8 8-8h24c4.4 0 8 3.6 8 8s-3.6 8-8 8zM164.4 831.6h-28c-4.4 0-8-3.6-8-8s3.6-8 8-8h28c4.4 0 8 3.6 8 8s-3.6 8-8 8z" fill="#5C3290" p-id="2567"></path><path d="M577.4 879.9h-184c-4.4 0-8-3.6-8-8s3.6-8 8-8h184c4.4 0 8 3.6 8 8s-3.6 8-8 8zM366.7 879.9h-28c-4.4 0-8-3.6-8-8s3.6-8 8-8h28c4.4 0 8 3.6 8 8s-3.6 8-8 8zM715.8 879.9h-98c-4.4 0-8-3.6-8-8s3.6-8 8-8h98c4.4 0 8 3.6 8 8s-3.6 8-8 8zM311 879.9h-4c-4.4 0-8-3.6-8-8s3.6-8 8-8h4c4.4 0 8 3.6 8 8s-3.6 8-8 8z" fill="#AD98C7" p-id="2568"></path><path d="M479 928.1h-28c-4.4 0-8-3.6-8-8s3.6-8 8-8h28c4.4 0 8 3.6 8 8s-3.6 8-8 8zM603.5 928.1h-98c-4.4 0-8-3.6-8-8s3.6-8 8-8h98c4.4 0 8 3.6 8 8s-3.6 8-8 8zM423.2 928.1h-4c-4.4 0-8-3.6-8-8s3.6-8 8-8h4c4.4 0 8 3.6 8 8s-3.5 8-8 8z" fill="#EEEAF4" p-id="2569"></path><path d="M162.6 133.4c-3.7 1.2-7 3.2-9.8 5.6 3.7 1.1 6.8 4 8.1 7.9 2.1 6.4-1.4 13.4-7.8 15.5-3.3 1.1-6.7 0.7-9.6-0.8 0.1 2.3 0.6 4.7 1.3 7 4.8 14.6 20.6 22.6 35.2 17.8 14.6-4.8 22.6-20.6 17.8-35.2-4.8-14.6-20.6-22.6-35.2-17.8z" fill="#B6EFFF" p-id="2570"></path><path d="M178.2 152.5c1 2.8 1.3 5.9 0.9 9.2-1.2 9-8.7 16.2-17.8 17.1-12.6 1.2-23.2-9.3-21.9-21.9 0.9-9 7.9-16.4 16.8-17.8 3.2-0.5 6.4-0.2 9.2 0.7 2.1 0.7 4.3 0.3 5.9-1.2l0.2-0.2c3.3-3 2.2-8.5-2.1-9.9-3.9-1.3-8-1.9-12.4-1.6-15.9 1.1-28.7 14-29.7 29.9-1.3 20.3 16.3 36.8 36.9 33.7 13.5-2 24.4-12.7 26.6-26.2 0.9-5.4 0.4-10.7-1.2-15.4-1.4-4.2-6.5-5.6-9.8-2.6-1.7 1.5-2.4 4-1.6 6.2z" fill="#5C3290" p-id="2571"></path><path d="M703.4 106.2m-8 0a8 8 0 1 0 16 0 8 8 0 1 0-16 0Z" fill="#4CC6F4" p-id="2572"></path><path d="M304.1 198.6m-8 0a8 8 0 1 0 16 0 8 8 0 1 0-16 0Z" fill="#5C3390" p-id="2573"></path><path d="M792.6 315.6m-10 0a10 10 0 1 0 20 0 10 10 0 1 0-20 0Z" fill="#FFA819" p-id="2574"></path><path d="M457.4 122.4h-0.1c2.4 1.4 4.1 3.9 4.5 6.9 0.7 5.2-3 10.1-8.2 10.8-4.2 0.6-8.1-1.7-9.9-5.3-0.5 1.9-0.6 4-0.3 6.1 1.2 9 9.5 15.2 18.4 14 9-1.2 15.2-9.5 14-18.4-1.2-9-9.4-15.3-18.4-14.1z" fill="#FFE404" p-id="2575"></path><path d="M733.6 179.6c-12.2 0-22 9.8-22 22s9.8 22 22 22 22-9.8 22-22-9.9-22-22-22z m0 30c-4.4 0-8-3.6-8-8s3.6-8 8-8 8 3.6 8 8-3.6 8-8 8z" fill="#5C3290" p-id="2576"></path><path d="M83.8 357.7c-9.9 0-18 8.1-18 18s8.1 18 18 18 18-8.1 18-18-8.1-18-18-18z m0 24.6c-3.6 0-6.5-2.9-6.5-6.5s2.9-6.5 6.5-6.5 6.5 2.9 6.5 6.5-2.9 6.5-6.5 6.5z" fill="#EEEAF4" p-id="2577"></path><path d="M910.7 311.2h14c2.8 0 5 2.2 5 5s-2.2 5-5 5h-14c-2.8 0-5-2.2-5-5 0-2.7 2.2-5 5-5zM928.3 337.6v-14c0-2.8 2.2-5 5-5s5 2.2 5 5v14c0 2.8-2.2 5-5 5s-5-2.2-5-5zM954.7 320h-14c-2.8 0-5-2.2-5-5s2.2-5 5-5h14c2.8 0 5 2.2 5 5s-2.2 5-5 5zM937.1 293.6v14c0 2.8-2.2 5-5 5s-5-2.2-5-5v-14c0-2.8 2.2-5 5-5 2.7 0 5 2.2 5 5z" fill="#AD98C7" p-id="2578"></path><path d="M869.5 168.8m-4.8 0a4.8 4.8 0 1 0 9.6 0 4.8 4.8 0 1 0-9.6 0Z" fill="#FCDDCC" p-id="2579"></path><path d="M905.7 166.3m-4.8 0a4.8 4.8 0 1 0 9.6 0 4.8 4.8 0 1 0-9.6 0Z" fill="#FCDDCC" p-id="2580"></path><path d="M886 152.4m-4.8 0a4.8 4.8 0 1 0 9.6 0 4.8 4.8 0 1 0-9.6 0Z" fill="#FCDDCC" p-id="2581"></path><path d="M887.6 185.4m-4.8 0a4.8 4.8 0 1 0 9.6 0 4.8 4.8 0 1 0-9.6 0Z" fill="#FCDDCC" p-id="2582"></path><path d="M865.5 142.3l14.8 14.8c1.6 1.6 1.6 4.1 0 5.7-1.6 1.6-4.1 1.6-5.7 0L859.8 148c-1.6-1.6-1.6-4.1 0-5.7 1.6-1.6 4.1-1.6 5.7 0zM859.9 189.7l14.8-14.8c1.6-1.6 4.1-1.6 5.7 0 1.6 1.6 1.6 4.1 0 5.7l-14.8 14.8c-1.6 1.6-4.1 1.6-5.7 0-1.6-1.6-1.6-4.1 0-5.7zM909 194.5l-14.8-14.8c-1.6-1.6-1.6-4.1 0-5.7 1.6-1.6 4.1-1.6 5.7 0l14.8 14.8c1.6 1.6 1.6 4.1 0 5.7-1.6 1.6-4.2 1.6-5.7 0zM913 146.3L898.2 161c-1.6 1.6-4.1 1.6-5.7 0-1.6-1.6-1.6-4.1 0-5.7l14.8-14.8c1.6-1.6 4.1-1.6 5.7 0 1.5 1.7 1.5 4.2 0 5.8z" fill="#FCDDCC" p-id="2583"></path><path d="M169.4 289.6l-7.1-7.1c-1.6-1.6-1.6-4.1 0-5.7 1.6-1.6 4.1-1.6 5.7 0l7.1 7.1c1.6 1.6 1.6 4.1 0 5.7-1.6 1.6-4.1 1.6-5.7 0zM168.2 301.7h-10c-2.2 0-4-1.8-4-4s1.8-4 4-4h10c2.2 0 4 1.8 4 4s-1.8 4-4 4zM175.8 311.2l-7.1 7.1c-1.6 1.6-4.1 1.6-5.7 0-1.6-1.6-1.6-4.1 0-5.7l7.1-7.1c1.6-1.6 4.1-1.6 5.7 0 1.6 1.6 1.6 4.1 0 5.7zM188 312.4v10c0 2.2-1.8 4-4 4s-4-1.8-4-4v-10c0-2.2 1.8-4 4-4s4 1.8 4 4zM197.4 304.7l7.1 7.1c1.6 1.6 1.6 4.1 0 5.7-1.6 1.6-4.1 1.6-5.7 0l-7.1-7.1c-1.6-1.6-1.6-4.1 0-5.7 1.6-1.5 4.2-1.5 5.7 0zM198.7 292.6h10c2.2 0 4 1.8 4 4s-1.8 4-4 4h-10c-2.2 0-4-1.8-4-4s1.7-4 4-4zM191 283.2l7.1-7.1c1.6-1.6 4.1-1.6 5.7 0 1.6 1.6 1.6 4.1 0 5.7l-7.1 7.1c-1.6 1.6-4.1 1.6-5.7 0-1.6-1.6-1.6-4.2 0-5.7zM178.8 281.9v-10c0-2.2 1.8-4 4-4s4 1.8 4 4v10c0 2.2-1.8 4-4 4s-4-1.8-4-4z" fill="#7BD721" p-id="2584"></path><path d="M689.7 759.6c0-90.7-73.5-164.2-164.2-164.2-90.7 0-164.2 73.5-164.2 164.2v0.1h328.3c0.1 0 0.1 0 0.1-0.1z" fill="#EF8686" p-id="2585"></path><path d="M502.2 595.5c-8.1 0-16 0.6-23.8 1.7 79.4 11.5 140.4 79.9 140.4 162.4v0.1h47.6v-0.1c0-90.6-73.5-164.1-164.2-164.1z" fill="#E26060" p-id="2586"></path><path d="M524.3 402.7m-201.8 0a201.8 201.8 0 1 0 403.6 0 201.8 201.8 0 1 0-403.6 0Z" fill="#04B1FF" p-id="2587"></path><path d="M500.9 200.8c-7.1 0-14.2 0.4-21.1 1.1 101.5 10.5 180.7 96.4 180.7 200.7s-79.2 190.2-180.7 200.7c6.9 0.7 14 1.1 21.1 1.1 111.5 0 201.8-90.4 201.8-201.8s-90.3-201.8-201.8-201.8z" fill="#0291F1" p-id="2588"></path></svg>