<?xml version="1.0" standalone="no"?><!DOCTYPE svg PUBLIC "-//W3C//DTD SVG 1.1//EN" "http://www.w3.org/Graphics/SVG/1.1/DTD/svg11.dtd"><svg class="icon" width="32px" height="32.00px" viewBox="0 0 1024 1024" version="1.1" xmlns="http://www.w3.org/2000/svg"><path d="M922.2 398.43L564.21 207.5 110.67 369.04l357.98 190.94L922.2 398.43z" fill="#3399CC" /><path d="M915.18 407.07a5.46 5.46 0 0 1 5.14 3.63l28.84-10.27L565.1 195.58 83.71 367l384.06 204.9 441.94-157.42v-1.95a5.46 5.46 0 0 1 5.47-5.46z m-351-199.58l358 190.94L468.65 560 110.67 369z"  /><path d="M492.67 765.9c-44.36-2.61-83.53-26.92-104.76-65A10.93 10.93 0 1 1 407 690.22c17.58 31.56 50.09 51.69 87 53.86l1.91 0.08 0.57-108.26h-0.65a5.44 5.44 0 0 1-0.93-0.2h-0.11a5.49 5.49 0 0 1-1-0.42L264.85 505l0.66 240.69 229.75 113.67 0.49-93.32c-1.02-0.04-2.05-0.04-3.08-0.14z" fill="#FFCC66" /><path d="M496.46 635.9v108.29c35.92 1.31 69.47-14.8 90.15-43.41a10.93 10.93 0 1 1 17.71 12.8c-24 33.27-62.4 52.55-103.79 52.55q-2 0-4.07-0.06v93.52l270.07-95.37 2.89-230.58-271 101.93a5.44 5.44 0 0 1-1.96 0.33z" fill="#FFCC66" /><path d="M778.13 521.23a5.47 5.47 0 0 0-5.06-0.64L496.94 624.43 262.06 490.89a5.46 5.46 0 0 0-8.16 4.76l0.69 253.49a5.46 5.46 0 0 0 3 4.88l235.18 116.3a5.29 5.29 0 0 0 3.32 0.48h0.33a5.46 5.46 0 0 0 1.82-0.31l275.49-97.28a5.47 5.47 0 0 0 3.64-5.08l3-242.39a5.46 5.46 0 0 0-2.24-4.51z m-11.59 243l-270.08 95.35-0.43 0.15-0.77-0.38-229.75-113.61-0.66-240.74 228.91 130.2a5.49 5.49 0 0 0 1 0.42h0.11a5.44 5.44 0 0 0 0.93 0.2h0.65a5.44 5.44 0 0 0 1.92-0.34l271-101.93z"  /><path d="M920.64 530.5v-118a5.46 5.46 0 1 0-10.93 0v118a19.81 19.81 0 0 1 10.93 0z" fill="#231815" /><path d="M915.18 540.66a9.53 9.53 0 0 0-9.52 9.52v95.51a9.52 9.52 0 0 0 19 0v-95.51a9.53 9.53 0 0 0-9.48-9.52z" fill="#FFCC66" /><path d="M920.64 530.5a19.81 19.81 0 0 0-10.93 0 20.51 20.51 0 0 0-15 19.68v95.51a20.45 20.45 0 0 0 40.89 0v-95.51a20.51 20.51 0 0 0-14.96-19.68z m4.06 115.19a9.52 9.52 0 0 1-19 0v-95.51a9.52 9.52 0 0 1 19 0z"  /><path d="M494 744.08c-36.86-2.17-69.37-22.3-87-53.86a10.93 10.93 0 1 0-19.09 10.64c21.24 38.12 60.4 62.43 104.76 65 1 0.06 2.05 0.1 3.08 0.14h0.71q2 0.06 4.07 0.06c41.39 0 79.75-19.28 103.79-52.55a10.93 10.93 0 1 0-17.71-12.8c-20.68 28.61-54.23 44.72-90.15 43.41h-0.6z" fill="#3399CC" /></svg>