<?xml version="1.0" standalone="no"?><!DOCTYPE svg PUBLIC "-//W3C//DTD SVG 1.1//EN" "http://www.w3.org/Graphics/SVG/1.1/DTD/svg11.dtd"><svg t="1597307524783" class="icon" viewBox="0 0 1024 1024" version="1.1" xmlns="http://www.w3.org/2000/svg" p-id="4430" width="32" height="32" xmlns:xlink="http://www.w3.org/1999/xlink"><defs><style type="text/css"></style></defs><path d="M890.07616 314.51136l-163.47136-23.86944a48.09728 48.09728 0 0 1-36.224-26.44992l-73.10848-148.84864a114.26816 114.26816 0 0 0-205.37344 0L338.7904 264.192a48.128 48.128 0 0 1-36.224 26.4448l-163.47136 23.87456a115.2 115.2 0 0 0-63.4624 196.2752l118.272 115.8656a48.47104 48.47104 0 0 1 13.824 42.79296l-27.92448 163.60448a114.62656 114.62656 0 0 0 45.568 112.54784 113.3568 113.3568 0 0 0 120.59648 8.7552l146.21184-77.24032a47.86176 47.86176 0 0 1 44.77952 0l146.2272 77.25568a114.62656 114.62656 0 0 0 166.14912-121.30304l-27.91936-163.60448a48.4608 48.4608 0 0 1 13.824-42.79296l118.272-115.8656a115.2 115.2 0 0 0-63.4368-196.29056z m17.11616 148.48l-118.272 115.8656a115.38944 115.38944 0 0 0-32.93184 101.85216l27.91936 163.60448a47.53408 47.53408 0 0 1-19.13856 47.28832 47.01696 47.01696 0 0 1-50.688 3.67616l-146.20672-77.24032a114.048 114.048 0 0 0-106.57792 0l-146.20672 77.25568a47.03744 47.03744 0 0 1-50.688-3.67616 47.54944 47.54944 0 0 1-19.14368-47.28832l27.92448-163.59936a115.4048 115.4048 0 0 0-32.93184-101.85728l-118.272-115.8656a48.4096 48.4096 0 0 1 26.67008-82.46784l163.46624-23.86944A114.5344 114.5344 0 0 0 398.336 293.72416L471.43936 144.896a48.01024 48.01024 0 0 1 86.29248 0l73.10848 148.84864a114.52416 114.52416 0 0 0 86.21568 62.9248l163.47136 23.86432a48.4096 48.4096 0 0 1 26.66496 82.47296z" fill="#556FB5" p-id="4431"></path><path d="M651.38176 435.42016l-156.672 185.40032-93.8752-77.18912a33.08544 33.08544 0 0 0-46.71488 4.69504 33.46432 33.46432 0 0 0 4.66944 46.94016l95.78496 78.75584a63.9744 63.9744 0 0 0 89.15968-8.13568l158.26432-187.27936a33.47968 33.47968 0 0 0-3.81952-47.02208 33.08544 33.08544 0 0 0-46.7968 3.83488z" fill="#F19149" p-id="4432"></path></svg>